<svg xmlns="http://www.w3.org/2000/svg" viewBox="0 0 171 171"><g fill="none" stroke-miterlimit="10" font-family="none" font-weight="none" font-size="none" text-anchor="none" style="mix-blend-mode:normal"><path d="M0 171.997V0h171.997v171.997z"/><path d="M85.5 14.25c-25.152 0-47.202 13.066-59.88 32.744L14.25 35.625V71.25h35.625l-13.86-13.86C45.814 40.158 64.263 28.5 85.5 28.5c31.478 0 57 25.522 57 57s-25.522 57-57 57c-4.247 0-8.47-.465-12.566-1.392l-3.131 13.902a71.521 71.521 0 0015.697 1.74c39.351 0 71.25-31.899 71.25-71.25S124.851 14.25 85.5 14.25zm-2.046 28.5v7.682c-2.415.306-15.933 2.846-15.933 19.162 0 23.805 24.645 16.765 24.645 32.647 0 7.951-5.145 8.14-6.193 8.14-.955 0-7.222.509-7.222-11.66H65.28c0 20.605 14.95 22.237 17.172 22.543v6.986h7.14v-6.986c2.408-.3 16.03-2.533 16.03-19.12 0-22.843-24.638-18.473-24.645-32.48 0-8.03 4.417-8.28 5.372-8.28 1.746 0 5.9 1.53 5.9 11.313h13.471c0-18.717-12.798-21.636-15.085-22.07V42.75zM14.25 85.5l.014 1.127a71.258 71.258 0 001.976 15.656l13.86-3.326a57.025 57.025 0 01-1.586-12.552L28.5 85.5zm20.15 25.313l-12.76 6.346a71.771 71.771 0 008.558 13.276l11.05-8.99a57.554 57.554 0 01-6.848-10.632zm15.865 19.497l-8.823 11.188a71.403 71.403 0 0013.415 8.35l6.137-12.859a57.213 57.213 0 01-10.73-6.68z" fill="#494949"/></g></svg>