<svg xmlns="http://www.w3.org/2000/svg" viewBox="0 0 171 171"><g fill="none" stroke-miterlimit="10" font-family="none" font-weight="none" font-size="none" text-anchor="none" style="mix-blend-mode:normal"><path d="M0 171.997V0h171.997v171.997z"/><path d="M7.125 35.625v92.625h14.25c0 11.806 9.569 21.375 21.375 21.375s21.375-9.569 21.375-21.375h42.75c0 11.806 9.569 21.375 21.375 21.375s21.375-9.569 21.375-21.375h14.25V92.625l-17.437-34.874a14.244 14.244 0 00-12.747-7.876H114v-14.25zm14.25 14.25H99.75V114H58.573c-3.913-4.341-9.518-7.125-15.823-7.125S30.84 109.659 26.927 114h-5.552zm53.744 10.98L57 78.987 46.368 68.355 36.293 78.431 57 99.138l28.208-28.194zM114 64.125h19.691l15.934 31.868V114h-5.552c-3.913-4.341-9.518-7.125-15.823-7.125-5.501 0-10.462 2.14-14.25 5.552zm-71.25 55.219c4.91 0 8.906 3.997 8.906 8.906 0 4.91-3.997 8.906-8.906 8.906-4.91 0-8.906-3.997-8.906-8.906 0-4.91 3.997-8.906 8.906-8.906zm85.5 0c4.91 0 8.906 3.997 8.906 8.906 0 4.91-3.997 8.906-8.906 8.906-4.91 0-8.906-3.997-8.906-8.906 0-4.91 3.997-8.906 8.906-8.906z" fill="#494949"/></g></svg>